<svg width="30" height="19" viewBox="0 0 30 19" fill="none" xmlns="http://www.w3.org/2000/svg">
<path fill-rule="evenodd" clip-rule="evenodd" d="M6.05961 18.3619C9.76273 19.7883 14.51 18.8194 16.8729 15.4931C18.4338 13.3939 18.7729 10.692 18.5953 8.14606C15.565 8.11914 12.5347 8.12453 9.50976 8.13529C9.50439 9.21468 9.50973 10.2887 9.5151 11.3681L9.51514 11.3755C10.628 11.412 11.7449 11.4158 12.8608 11.4196C13.5585 11.422 14.2557 11.4244 14.9514 11.4347C14.1494 15.45 8.68625 16.7526 5.79587 14.1313C2.82477 11.833 2.96471 6.78968 6.05423 4.65285C8.21259 2.93047 11.286 3.35568 13.4443 4.84662C14.2947 4.06617 15.086 3.22651 15.8557 2.35455C14.0579 0.917438 11.8511 -0.0998437 9.50438 0.00780501C4.61174 -0.159051 0.106632 4.13076 0.0258952 9.02339C-0.291669 13.0225 2.34573 16.9463 6.05961 18.3619ZM27.2126 10.8696C28.1169 10.8642 29.0211 10.8588 29.9254 10.848V8.15144C29.6239 8.14964 29.3225 8.14845 29.0211 8.14725C28.4182 8.14486 27.8154 8.14247 27.2126 8.13529L27.1965 5.42254H24.4945C24.4918 5.87475 24.4877 6.32695 24.4837 6.77916C24.4797 7.2312 24.4756 7.68325 24.4729 8.13529C23.5687 8.13529 22.6644 8.14067 21.7602 8.15144V10.848C22.2123 10.8534 22.6644 10.8575 23.1166 10.8615C23.5687 10.8655 24.0208 10.8696 24.4729 10.875C24.4747 11.176 24.4759 11.4765 24.4771 11.7768C24.4795 12.3784 24.4819 12.9792 24.4891 13.5823H27.1965C27.1965 12.6781 27.2018 11.7738 27.2126 10.8696Z" fill="white"/>
</svg>
