<svg width="40" height="11" viewBox="0 0 40 11" fill="none" xmlns="http://www.w3.org/2000/svg">
<path d="M6.36144 0C4.24096 0 2.19622 0.647059 0.454393 1.77941L0 2.02206L6.2857 11L12.5714 2.02206L12.1928 1.77941C10.4509 0.647059 8.48192 0 6.36144 0ZM11.3597 2.26471L10.2995 3.72059C9.08778 2.99265 7.72461 2.66912 6.36144 2.66912C4.99827 2.66912 3.6351 2.99265 2.42339 3.72059L1.36316 2.26471C2.87779 1.375 4.61961 0.889705 6.36144 0.889705C8.17899 0.889705 9.84509 1.375 11.3597 2.26471Z" fill="black"/>
<path d="M14.9286 11H25.9286V0L15.1677 10.6788L14.9286 11ZM25.0518 2.24817V10.1168H23.2981V4.0146L25.0518 2.24817Z" fill="black"/>
<path d="M38.6208 0.738806H38.1434V0.410447C38.1434 0.164178 37.9843 0 37.7456 0H35.4382C35.1995 0 35.0403 0.164178 35.0403 0.410447V0.738806H34.5629C33.9264 0.738806 33.449 1.23134 33.449 1.97015V9.76866C33.449 10.4254 33.9264 11 34.5629 11H38.6208C39.2573 11 39.7347 10.4254 39.7347 9.76866V1.97015C39.7347 1.31343 39.2573 0.738806 38.6208 0.738806ZM38.8595 1.97015V5.74627H34.3242V1.97015C34.3242 1.80597 34.4038 1.64179 34.5629 1.64179H38.6208C38.7004 1.64179 38.8595 1.80597 38.8595 1.97015Z" fill="black"/>
</svg>
