<svg width="73" height="85" viewBox="0 0 73 85" fill="none" xmlns="http://www.w3.org/2000/svg">
<path fill-rule="evenodd" clip-rule="evenodd" d="M18.0313 10.7312L36.308 21.253V0L18.0313 10.7312Z" fill="#70DB00"/>
<path fill-rule="evenodd" clip-rule="evenodd" d="M36.3079 21.253L18.0313 32.2987V11.1605V10.7312L36.3079 21.253Z" fill="#2BD799"/>
<path fill-rule="evenodd" clip-rule="evenodd" d="M18.031 32.2988L0 42.9252V21.6723L18.031 32.2988Z" fill="#00ADEE"/>
<path fill-rule="evenodd" clip-rule="evenodd" d="M18.031 53.1266L0 64.1782V42.9252L18.031 53.1266Z" fill="#004792"/>
<path fill-rule="evenodd" clip-rule="evenodd" d="M0 21.6723L18.031 32.2987V10.7312L0 21.6723Z" fill="#85DFDC"/>
<path fill-rule="evenodd" clip-rule="evenodd" d="M0 42.9253L18.031 53.1268V32.2989L0 42.9253Z" fill="#0084FF"/>
<path fill-rule="evenodd" clip-rule="evenodd" d="M54.8321 10.8088L36.2941 21.253V0L54.8321 10.8088Z" fill="#A0E123"/>
<path fill-rule="evenodd" clip-rule="evenodd" d="M36.2939 21.253L54.5706 32.2988L54.832 10.8089L36.2939 21.253Z" fill="#CEEA00"/>
<path fill-rule="evenodd" clip-rule="evenodd" d="M54.57 32.2988L72.6008 42.9252V21.6723L54.57 32.2988Z" fill="#F8D701"/>
<path fill-rule="evenodd" clip-rule="evenodd" d="M54.4935 53.162L72.5474 63.9637L72.6015 42.9252L54.4935 53.162Z" fill="#CC3342"/>
<path fill-rule="evenodd" clip-rule="evenodd" d="M72.6008 21.6723L54.57 32.2988L54.8314 10.8089L72.6008 21.6723Z" fill="#EEEE45"/>
<path fill-rule="evenodd" clip-rule="evenodd" d="M17.7703 74.1914L36.3084 63.7472V85L17.7703 74.1914Z" fill="#4A0049"/>
<path fill-rule="evenodd" clip-rule="evenodd" d="M36.3082 63.7474L18.0316 53.1267L17.7701 74.1916L36.3082 63.7474Z" fill="#48255E"/>
<path fill-rule="evenodd" clip-rule="evenodd" d="M0 64.1783L18.031 53.1267L17.7696 74.1916L0 64.1783Z" fill="#083C5F"/>
<path fill-rule="evenodd" clip-rule="evenodd" d="M54.8321 74.1914L36.2941 63.7472V85L54.8321 74.1914Z" fill="#B536B7"/>
<path fill-rule="evenodd" clip-rule="evenodd" d="M36.2939 63.7474L54.5223 53.1267L54.832 74.1916L36.2939 63.7474Z" fill="#A4248B"/>
<path fill-rule="evenodd" clip-rule="evenodd" d="M72.5537 63.9658L54.5227 53.1267L54.8324 74.1916L72.5537 63.9658Z" fill="#DE4A77"/>
<path fill-rule="evenodd" clip-rule="evenodd" d="M72.6008 42.9253L54.57 53.1268V32.2989L72.6008 42.9253Z" fill="#F76F0D"/>
</svg>
