<svg width="25" height="23" viewBox="0 0 25 23" fill="none" xmlns="http://www.w3.org/2000/svg">
<path d="M12.5 0C19.4036 0 25 4.3619 25 9.74405C25 15.125 19.4036 19.4869 12.5 19.4869C11.8126 19.4873 11.1259 19.4435 10.444 19.356L5.19643 22.7881C4.6 23.1036 4.38929 23.069 4.63452 22.2964L5.69643 17.9179C2.26786 16.1798 0 13.1679 0 9.74405C0 4.3631 5.59643 0 12.5 0ZM19.5321 9.59524L21.2821 7.9C21.3831 7.79513 21.4395 7.65516 21.4393 7.50958C21.4391 7.36399 21.3824 7.22416 21.2812 7.11953C21.18 7.01491 21.0421 6.95365 20.8966 6.94868C20.7511 6.9437 20.6093 6.99539 20.5012 7.09286L18.206 9.31429V7.47857C18.206 7.32954 18.1468 7.18662 18.0414 7.08124C17.936 6.97587 17.7931 6.91667 17.644 6.91667C17.495 6.91667 17.3521 6.97587 17.2467 7.08124C17.1413 7.18662 17.0821 7.32954 17.0821 7.47857V10.5226C17.0611 10.6095 17.0611 10.7001 17.0821 10.7869V12.5C17.0821 12.649 17.1413 12.7919 17.2467 12.8973C17.3521 13.0027 17.495 13.0619 17.644 13.0619C17.7931 13.0619 17.936 13.0027 18.0414 12.8973C18.1468 12.7919 18.206 12.649 18.206 12.5V10.8774L18.7143 10.3857L20.4143 12.806C20.4567 12.8664 20.5107 12.9178 20.573 12.9574C20.6353 12.997 20.7049 13.0239 20.7776 13.0366C20.8503 13.0493 20.9249 13.0476 20.9969 13.0315C21.069 13.0154 21.1372 12.9853 21.1976 12.9429C21.258 12.9004 21.3095 12.8465 21.3491 12.7841C21.3887 12.7218 21.4156 12.6523 21.4283 12.5795C21.441 12.5068 21.4393 12.4323 21.4232 12.3602C21.4071 12.2881 21.377 12.2199 21.3345 12.1595L19.5321 9.59405V9.59524ZM16.0107 11.8857H14.2726V7.49643C14.266 7.35203 14.2039 7.21575 14.0994 7.11592C13.9948 7.01609 13.8559 6.96038 13.7113 6.96038C13.5668 6.96038 13.4278 7.01609 13.3232 7.11592C13.2187 7.21575 13.1567 7.35203 13.15 7.49643V12.4476C13.15 12.7571 13.4 13.0095 13.7107 13.0095H16.0107C16.1597 13.0095 16.3027 12.9503 16.408 12.8449C16.5134 12.7396 16.5726 12.5966 16.5726 12.4476C16.5726 12.2986 16.5134 12.1557 16.408 12.0503C16.3027 11.9449 16.1597 11.8857 16.0107 11.8857ZM9.0381 10.5857L9.86667 8.55357L10.6262 10.5857H9.0381ZM12.0417 11.1667L12.044 11.1476C12.0438 11.0061 11.9897 10.8699 11.8929 10.7667L10.6476 7.43333C10.5954 7.27449 10.496 7.13535 10.3626 7.03452C10.2292 6.93368 10.0683 6.87596 9.90119 6.86905C9.7329 6.86831 9.56838 6.91883 9.42951 7.01389C9.29064 7.10895 9.18401 7.24404 9.12381 7.40119L7.14643 12.2524C7.11852 12.3207 7.10435 12.3938 7.10471 12.4676C7.10507 12.5414 7.11997 12.6144 7.14854 12.6825C7.17712 12.7505 7.21882 12.8123 7.27126 12.8642C7.32369 12.9161 7.38585 12.9572 7.45417 12.9851C7.52248 13.013 7.59563 13.0272 7.66943 13.0268C7.74323 13.0265 7.81623 13.0116 7.88427 12.983C7.95231 12.9544 8.01406 12.9127 8.06598 12.8603C8.11791 12.8079 8.159 12.7457 8.1869 12.6774L8.57976 11.7095H11.044L11.4 12.6619C11.4242 12.7331 11.4624 12.7987 11.5125 12.8548C11.5625 12.911 11.6233 12.9565 11.6912 12.9887C11.7591 13.021 11.8328 13.0392 11.908 13.0424C11.9831 13.0457 12.0581 13.0338 12.1285 13.0075C12.199 12.9812 12.2634 12.941 12.318 12.8894C12.3727 12.8377 12.4164 12.7756 12.4466 12.7067C12.4768 12.6379 12.4929 12.5637 12.4939 12.4885C12.4949 12.4133 12.4807 12.3387 12.4524 12.269L12.0417 11.1667ZM8.0869 7.50238C8.08691 7.35356 8.02787 7.21082 7.92275 7.10547C7.81763 7.00013 7.67501 6.94079 7.52619 6.94048H3.6631C3.51407 6.94048 3.37115 6.99968 3.26577 7.10505C3.16039 7.21043 3.10119 7.35335 3.10119 7.50238C3.10119 7.65141 3.16039 7.79433 3.26577 7.89971C3.37115 8.00508 3.51407 8.06428 3.6631 8.06428H5.04405V12.5119C5.04405 12.6609 5.10325 12.8039 5.20863 12.9092C5.314 13.0146 5.45693 13.0738 5.60595 13.0738C5.75498 13.0738 5.8979 13.0146 6.00328 12.9092C6.10866 12.8039 6.16786 12.6609 6.16786 12.5119V8.06428H7.525C7.67403 8.06428 7.81695 8.00508 7.92233 7.89971C8.0277 7.79433 8.0869 7.65141 8.0869 7.50238Z" fill="#391F20"/>
</svg>
